<svg xmlns="http://www.w3.org/2000/svg" xmlns:xlink="http://www.w3.org/1999/xlink" xml:space="preserve" width="5329.000007152557" height="9465" version="1.1" style="shape-rendering: geometricprecision; text-rendering: geometricprecision; fill-rule: evenodd; clip-rule: evenodd;"><rect id="backgroundrect" width="100%" height="100%" x="0" y="0" fill="none" stroke="none" class="" style=""/>
 <defs>
  <style type="text/css">
   <![CDATA[
    .fil0 {fill:#FF4F19}
    .fil1 {fill:#F0F0F0;fill-rule:nonzero}
   ]]>
  </style>
 </defs>
 
<g class="currentLayer" style=""><title>Layer 1</title><g id="Layer_x0020_1" class="">
  <metadata id="CorelCorpID_0Corel-Layer" transform="translate(-20,0) translate(0,-20) translate(-20,0) translate(0,20) translate(0,20) translate(0,20) translate(-20,0) translate(-20,0) translate(-20,0) translate(-20,0) translate(20,0) translate(20,0) translate(20,0) translate(20,0) translate(20,0) translate(20,0) translate(20,0) translate(20,0) translate(20,0) translate(20,0) translate(0,-20) translate(0,-20) translate(0,-20) translate(-20,0) translate(-20,0) translate(-20,0) translate(-20,0) translate(-20,0) translate(-20,0) translate(-20,0) translate(-20,0) translate(-20,0) translate(-20,0) translate(-20,0) translate(-20,0) translate(-20,0) translate(-20,0) translate(-20,0) translate(-20,0) translate(-20,0) translate(0,-20) translate(-20,0) translate(0,-20) translate(-20,0) translate(0,-20) translate(-20,0) translate(-7479.99951171875,-259.9999694824219) translate(0,19.999998092651367) translate(4859.99951171875,-1259.9998779296875) translate(2619.999755859375,299.9999694824219) translate(0.271728515625,0) translate(2619.999755859375,10805) scale(0.9048072695732117) translate(-2619.999755859375,-10805) translate(25184.91796875,11941.76953125) scale(0.9368753433227539) translate(-25184.91796875,-11941.76953125) "/>
  <g id="_2413006974944">
   <path class="fil0" d="M3621.8296041369904,9225.000124811047 c-939.2423164251375,-1219.8282430828274 -634.9210243704224,-3207.6650950836824 758.6840010834819,-4601.270120537587 l-896.8577353590211,-896.8577353590211 c-1349.5250611451434,1712.337075071099 -1472.4403462368807,3937.5275810422054 -203.4459891173583,5206.521938161728 c107.65683590793543,107.65683590793543 221.24751316512715,204.29368073868062 341.61972339289747,291.6059177348802 zm-1067.2437512448087,-1066.3960596234865 c-1226.609776053406,-1594.5079397072957 -829.042405653235,-4191.835067438903 990.9515053257994,-6011.828978417938 c211.07521370925923,-211.07521370925923 432.3227268743864,-402.65352012810496 661.1994646314145,-574.7349192565372 l-1252.040524693076,-1252.040524693076 c-2293.0058356768923,2293.0058356768923 -2671.9239904079723,5631.2154404442135 -845.9962380796816,7457.143192772503 c139.86911751818383,139.86911751818383 289.06284287091324,267.02286071653276 445.8857928155436,381.4612295950468 z" id="svg_1"/>
   <path class="fil1" d="M6078.439922729092,6433.551615796627 l308.55975016132675,0 l0,-2135.33519411094 l617.1195003226535,0 l0,-278.042851793723 l-617.1195003226535,0 l0,-16.953832426446525 c0,-229.7244293783504 8.476916213223262,-604.4041260028187 617.1195003226535,-604.4041260028187 l0,-287.3674596282686 c-890.9238940097648,9.324607834545589 -917.202334270757,573.8872276352149 -925.6792504839802,908.7254180575337 l-375.5273882457905,0 l0,278.042851793723 l375.5273882457905,0 l0,2135.33519411094 zm3767.98925677774,-2413.378045904663 l-308.55975016132675,0 l0,1274.9281984687786 c0,423.8458106611631 -110.19991077190241,582.3641438484381 -250.91671991140856,723.9286446092666 c-155.1275667019857,154.27987508066337 -339.9243401502528,194.1213812828127 -512.005739278685,194.1213812828127 c-167.8429410218206,0 -392.48122067223704,-39.84150620214933 -560.3241616940577,-229.7244293783504 c-105.96145266529078,-132.2398929262829 -172.08139912843222,-330.59973231570723 -172.08139912843222,-634.9210243704224 l0,-1328.3327706120851 l-308.55975016132675,0 l0,1332.5712287186968 c0,256.0028696393425 39.84150620214933,564.5626198006693 211.92290533058156,776.4855251312508 c105.11376104396845,132.2398929262829 352.6397144700877,361.9643223046333 829.042405653235,361.9643223046333 c450.1242509221552,0 684.0871384071172,-251.7644115327309 772.2470670246391,-432.3227268743864 l8.476916213223262,0 l0,374.6796966244682 l290.7582261135579,0 l0,-2413.378045904663 zm3425.52184176352,0 l-309.4074417826491,0 l0,432.3227268743864 l-8.476916213223262,0 c-278.042851793723,-427.2365771464524 -710.3655786681094,-493.35652360959386 -930.7654002119142,-493.35652360959386 c-635.7687159917447,0 -1262.2128241489438,511.1580476573627 -1262.2128241489438,1279.1666565753903 c0,758.6840010834819 626.444108157199,1252.888216314398 1262.2128241489438,1252.888216314398 c352.6397144700877,0 750.2070848702588,-154.27987508066337 930.7654002119142,-498.4426733375278 l8.476916213223262,0 l0,211.07521370925923 c0,666.2856143593484 -467.07808334860175,900.2485018443105 -873.122369961996,900.2485018443105 c-586.6026019550497,0 -824.8039475466235,-410.2827447200059 -904.486959950922,-608.6425841094302 l-326.3612742090956,0 c220.39982154380482,754.4455429768703 890.9238940097648,886.6854359031532 1235.0866922666294,886.6854359031532 c97.48453645206752,0 652.7225484181912,-22.039982154380482 957.0438404729064,-445.8857928155436 c221.24751316512715,-294.9966842201695 221.24751316512715,-621.3579584292652 221.24751316512715,-881.5992861752193 l0,-2034.459891173583 zm-2201.4551405740813,1208.8082520056373 c0,-528.9595717051316 406.04428661339426,-992.646888568444 952.8053823662947,-992.646888568444 c542.5226376462888,0 957.0438404729064,463.68731686331245 957.0438404729064,992.646888568444 c0,410.2827447200059 -317.88435799587234,984.1699723552208 -957.0438404729064,984.1699723552208 c-546.7610957529005,0 -952.8053823662947,-458.6011671353785 -952.8053823662947,-984.1699723552208 zm5338.761831088011,-1208.8082520056373 l-308.55975016132675,0 l0,1274.9281984687786 c0,423.8458106611631 -110.19991077190241,582.3641438484381 -251.7644115327309,723.9286446092666 c-154.27987508066337,154.27987508066337 -339.0766485289305,194.1213812828127 -511.1580476573627,194.1213812828127 c-167.8429410218206,0 -392.48122067223704,-39.84150620214933 -560.3241616940577,-229.7244293783504 c-105.96145266529078,-132.2398929262829 -172.08139912843222,-330.59973231570723 -172.08139912843222,-634.9210243704224 l0,-1328.3327706120851 l-308.55975016132675,0 l0,1332.5712287186968 c0,256.0028696393425 38.99381458082701,564.5626198006693 211.07521370925923,776.4855251312508 c105.96145266529078,132.2398929262829 353.48740609141004,361.9643223046333 829.8900972745573,361.9643223046333 c450.1242509221552,0 683.2394467857949,-251.7644115327309 771.3993754033169,-432.3227268743864 l9.324607834545589,0 l0,374.6796966244682 l290.7582261135579,0 l0,-2413.378045904663 zm3433.9987579767435,1319.0081627775396 c0,-30.516898367603744 4.23845810661163,-56.79533862859586 4.23845810661163,-88.15992861752193 c0,-211.07521370925923 -48.318422415372595,-445.03810119422127 -189.88292317620107,-674.7625305725717 c-172.08139912843222,-300.0828339481035 -546.7610957529005,-612.8810422160418 -1076.5683590793542,-617.1195003226535 c-701.0409708335637,12.715374319834893 -1252.040524693076,586.6026019550497 -1252.040524693076,1269.8420487408448 c0,714.604036774721 581.5164522271158,1262.2128241489438 1257.1266744210097,1262.2128241489438 c555.2380119661236,0 1018.9253288294361,-366.20278041124493 1186.7682698512567,-846.8439297010038 l-327.2089658304179,0 c-110.19991077190241,299.23514232678116 -422.9981190398408,559.4764700727353 -864.6454537487728,568.8010779072808 c-471.3165414552134,0 -912.9638761641454,-401.80582850678263 -935.0038583185258,-873.9700615833183 l2197.2166824674696,0 zm-2197.2166824674696,-277.1951601724007 c88.15992861752193,-569.6487695286032 560.3241616940577,-825.6516391679457 940.0900080464598,-825.6516391679457 c383.15661283769145,0 846.8439297010038,256.0028696393425 943.4807745317491,825.6516391679457 l-1883.5707825782088,0 z" id="svg_2"/>
  </g>
 </g></g></svg>