<?xml version="1.0" encoding="UTF-8"?>
<!DOCTYPE svg PUBLIC "-//W3C//DTD SVG 1.1//EN" "http://www.w3.org/Graphics/SVG/1.1/DTD/svg11.dtd">
<!-- Creator: CorelDRAW X8 -->
<svg xmlns="http://www.w3.org/2000/svg" xml:space="preserve" width="236.998mm" height="111.704mm" version="1.1" style="shape-rendering:geometricPrecision; text-rendering:geometricPrecision; image-rendering:optimizeQuality; fill-rule:evenodd; clip-rule:evenodd"
viewBox="0 0 22289 10505"
 xmlns:xlink="http://www.w3.org/1999/xlink">
 <defs>
  <style type="text/css">
   <![CDATA[
    .fil0 {fill:#FF4F19}
    .fil1 {fill:#264263;fill-rule:nonzero}
   ]]>
  </style>
 </defs>
 <g id="Layer_x0020_1">
  <metadata id="CorelCorpID_0Corel-Layer"/>
  <g id="_2413006974944">
   <path class="fil0" d="M3148 10505c-1108,-1439 -749,-3784 895,-5428l-1058 -1058c-1592,2020 -1737,4645 -240,6142 127,127 261,241 403,344zm-1259 -1258c-1447,-1881 -978,-4945 1169,-7092 249,-249 510,-475 780,-678l-1477 -1477c-2705,2705 -3152,6643 -998,8797 165,165 341,315 526,450z"/>
   <path class="fil1" d="M6046 7212l364 0 0 -2519 728 0 0 -328 -728 0 0 -20c0,-271 10,-713 728,-713l0 -339c-1051,11 -1082,677 -1092,1072l-443 0 0 328 443 0 0 2519zm4445 -2847l-364 0 0 1504c0,500 -130,687 -296,854 -183,182 -401,229 -604,229 -198,0 -463,-47 -661,-271 -125,-156 -203,-390 -203,-749l0 -1567 -364 0 0 1572c0,302 47,666 250,916 124,156 416,427 978,427 531,0 807,-297 911,-510l10 0 0 442 343 0 0 -2847zm4041 0l-365 0 0 510 -10 0c-328,-504 -838,-582 -1098,-582 -750,0 -1489,603 -1489,1509 0,895 739,1478 1489,1478 416,0 885,-182 1098,-588l10 0 0 249c0,786 -551,1062 -1030,1062 -692,0 -973,-484 -1067,-718l-385 0c260,890 1051,1046 1457,1046 115,0 770,-26 1129,-526 261,-348 261,-733 261,-1040l0 -2400zm-2597 1426c0,-624 479,-1171 1124,-1171 640,0 1129,547 1129,1171 0,484 -375,1161 -1129,1161 -645,0 -1124,-541 -1124,-1161zm6298 -1426l-364 0 0 1504c0,500 -130,687 -297,854 -182,182 -400,229 -603,229 -198,0 -463,-47 -661,-271 -125,-156 -203,-390 -203,-749l0 -1567 -364 0 0 1572c0,302 46,666 249,916 125,156 417,427 979,427 531,0 806,-297 910,-510l11 0 0 442 343 0 0 -2847zm4051 1556c0,-36 5,-67 5,-104 0,-249 -57,-525 -224,-796 -203,-354 -645,-723 -1270,-728 -827,15 -1477,692 -1477,1498 0,843 686,1489 1483,1489 655,0 1202,-432 1400,-999l-386 0c-130,353 -499,660 -1020,671 -556,0 -1077,-474 -1103,-1031l2592 0zm-2592 -327c104,-672 661,-974 1109,-974 452,0 999,302 1113,974l-2222 0z"/>
  </g>
 </g>
</svg>
